<?xml version="1.0" encoding="iso-8859-1"?>
<!-- Uploaded to: SVG Repo, www.svgrepo.com, Generator: SVG Repo Mixer Tools -->
<!DOCTYPE svg PUBLIC "-//W3C//DTD SVG 1.1//EN" "http://www.w3.org/Graphics/SVG/1.1/DTD/svg11.dtd">
<svg height="800px" width="800px" version="1.1" id="Capa_1" xmlns="http://www.w3.org/2000/svg" xmlns:xlink="http://www.w3.org/1999/xlink" 
	 viewBox="0 0 403.856 403.856" xml:space="preserve">
<g>
	<path style="fill:#231F20;" d="M384.846,86.223c0-0.007-0.001-0.014-0.001-0.021c-0.025-30.421-24.651-55.193-55.02-55.449
		l-46.306-7.219c-0.539-3.749-1.829-7.734-4.457-11.395C273.281,4.083,262.964,0,248.401,0h-92.945
		c-14.563,0-24.878,4.083-30.66,12.137c-2.628,3.661-3.918,7.647-4.457,11.396l-46.308,7.219
		c-30.368,0.256-54.994,25.028-55.02,55.449c0,0.007-0.001,0.014-0.001,0.021L17.832,372.57c-0.007,1.596,0.623,3.128,1.749,4.259
		s2.655,1.766,4.251,1.766h53.047v19.262c0,3.314,2.687,6,6,6h236.766c3.314,0,6-2.686,6-6v-19.262h54.379
		c1.596,0,3.125-0.636,4.251-1.766s1.756-2.663,1.749-4.259L384.846,86.223z M134.543,19.136C137.943,14.401,144.979,12,155.455,12
		h92.945c10.439,0,17.464,2.384,20.877,7.085c4.489,6.184,1.814,15.223,1.63,15.823L258.088,70.31l-24.463-14.734
		c12.562-7.663,20.929-15.776,24.897-24.175c0.878-1.859,0.744-4.038-0.356-5.774c-1.1-1.736-3.013-2.789-5.068-2.789H150.76
		c-2.056,0-3.969,1.053-5.068,2.789c-1.101,1.737-1.234,3.916-0.357,5.774c3.969,8.399,12.336,16.513,24.896,24.175L145.769,70.31
		L132.95,34.905C132.755,34.28,130.107,25.316,134.543,19.136z M162.612,34.838h78.635c-11.848,11.65-33.316,20.737-39.318,22.603
		C195.926,55.575,174.459,46.488,162.612,34.838z M29.915,352.275h39.153L58.84,366.595H29.857L29.915,352.275z M313.645,391.856
		H88.879v-20.872c0-7.826,1.735-15.319,5.158-22.272c0.823-1.671,0.823-3.63,0-5.301c-3.279-6.658-5.01-13.815-5.149-21.289
		c-0.002-0.113-0.004-0.227-0.005-0.34c-0.002-0.121-0.003-0.242-0.003-0.364c0-0.001,0-0.002,0-0.003c0-0.002,0-0.004,0-0.006
		c-0.001-0.08-0.001-0.16-0.001-0.24l2-199.924c0.033-3.313-2.626-6.027-5.94-6.06c-0.021,0-0.04,0-0.061,0
		c-3.286,0-5.966,2.647-5.999,5.94L76.88,321.018c-0.001,0.041-0.001,0.081-0.001,0.122c0,0.116,0,0.232,0.001,0.348
		c0,0.023,0,0.048,0,0.071c0.001,0.031,0.001,0.061,0.001,0.091c0,0.01,0,0.02,0,0.03c0,0.009,0,0.018,0.001,0.027
		c0,0.029,0,0.058,0,0.087c0.001,0.025,0.001,0.05,0.001,0.075c0,0.013,0,0.026,0.001,0.039c0,0.008,0,0.018,0,0.026
		c0,0,0,0.001,0,0.002c0,0.037,0.001,0.074,0.001,0.111c0.001,0.009,0.001,0.018,0.001,0.027c0,0.01,0,0.02,0,0.029
		c0,0.012,0.001,0.024,0.001,0.036c0,0.007,0,0.014,0,0.021c0,0.004,0,0.008,0,0.013c0.001,0.029,0.001,0.058,0.002,0.087
		c0,0.016,0,0.031,0.001,0.047c0,0.007,0,0.015,0,0.022c0,0.004,0,0.008,0,0.013c0.001,0.015,0.001,0.029,0.001,0.044
		c0.001,0.033,0.002,0.067,0.002,0.101c0,0.004,0,0.007,0.001,0.012c0,0.018,0,0.035,0.001,0.053c0,0.001,0,0.002,0,0.003
		c0,0.013,0,0.025,0.001,0.037c0,0.006,0,0.013,0,0.02c0,0.007,0,0.014,0.001,0.021c0,0.012,0,0.024,0,0.036
		c0,0.003,0,0.004,0.001,0.007c0.001,0.054,0.002,0.108,0.004,0.163c0,0.003,0,0.005,0,0.008c0.157,5.993,1.15,11.823,2.955,17.429
		H29.965L31.01,86.272c0-0.004-0.001-0.009-0.001-0.013c0-0.004,0.001-0.008,0.001-0.012c0-23.985,19.513-43.497,43.498-43.497
		c0.31,0,0.618-0.024,0.924-0.072l45.347-7.07c0.374,1.834,16.191,45.649,16.191,45.649c0.611,1.688,1.945,3.013,3.637,3.613
		c1.691,0.6,3.564,0.411,5.101-0.516l36.189-21.795c0.183-0.11,0.356-0.229,0.522-0.354c7.106,3.452,14.396,6.389,17.951,7.189
		c0.388,0.104,0.787,0.171,1.183,0.2c0.118,0.01,0.226,0.016,0.324,0.016c0.012-0.001,0.034,0,0.051-0.001
		c0.119,0.003,0.246-0.003,0.389-0.016c0.388-0.029,0.777-0.095,1.156-0.196c3.548-0.796,10.851-3.737,17.965-7.193
		c0.167,0.125,0.341,0.244,0.523,0.354l36.188,21.795c0.945,0.57,2.018,0.86,3.096,0.86c0.676,0,1.353-0.114,2.005-0.345
		c1.691-0.6,3.025-1.925,3.637-3.612c0,0,15.819-43.816,16.193-45.649l45.345,7.069c0.306,0.048,0.614,0.072,0.924,0.072
		c23.985,0,43.498,19.513,43.498,43.497c0,0.004,0.001,0.008,0.001,0.012c0,0.004-0.001,0.009-0.001,0.013l1.045,254.003h-51.226
		c1.977-6.138,2.979-12.543,2.979-19.135c0-0.023,0-0.046,0-0.069l-2-199.946c-0.033-3.293-2.713-5.94-5.999-5.94
		c-0.021,0-0.041,0-0.061,0c-3.314,0.033-5.974,2.746-5.94,6.06l2,199.895c0,7.825-1.735,15.318-5.158,22.272
		c-0.002,0.003-0.003,0.006-0.005,0.009c0,0.001-0.001,0.002-0.001,0.003c-0.002,0.002-0.003,0.004-0.004,0.007
		c0,0-0.001,0.001-0.001,0.001c-0.001,0.003-0.003,0.006-0.004,0.008v0.001c-0.41,0.845-0.604,1.739-0.604,2.62
		c0,0.543,0.074,1.081,0.218,1.599c0.053,0.192,0.116,0.382,0.189,0.569c0.001,0.001,0.001,0.002,0.001,0.003
		c0.001,0.001,0.001,0.001,0.001,0.002c0.07,0.18,0.149,0.357,0.236,0.53c3.405,6.938,5.132,14.412,5.132,22.218V391.856z
		 M345.017,366.595l-10.228-14.319h39.152l0.059,14.319H345.017z"/>
	<path style="fill:#231F20;" d="M187.881,181.58h-7.748c-3.314,0-6,2.687-6,6c0,3.313,2.686,6,6,6h1.748v35.535c0,3.313,2.686,6,6,6
		c3.313,0,6-2.687,6-6V187.58C193.881,184.266,191.195,181.58,187.881,181.58z"/>
	<path style="fill:#231F20;" d="M214.266,181.58c-8.524,0-15.459,6.935-15.459,15.459v22.617c0,8.524,6.935,15.459,15.459,15.459
		c8.523,0,15.457-6.935,15.457-15.459v-22.617C229.723,188.515,222.789,181.58,214.266,181.58z M217.723,219.656
		c0,1.907-1.551,3.459-3.457,3.459c-1.907,0-3.459-1.552-3.459-3.459v-22.617c0-1.907,1.552-3.459,3.459-3.459
		c1.906,0,3.457,1.552,3.457,3.459V219.656z"/>
	<path style="fill:#231F20;" d="M255.407,101.161c-17.367,0-31.496,14.129-31.496,31.497s14.129,31.497,31.496,31.497
		s31.496-14.129,31.496-31.497S272.774,101.161,255.407,101.161z M255.407,113.161c8.656,0,16.004,5.675,18.541,13.497h-37.082
		C239.403,118.836,246.75,113.161,255.407,113.161z M255.407,152.154c-8.656,0-16.004-5.675-18.541-13.497h37.082
		C271.411,146.479,264.063,152.154,255.407,152.154z"/>
</g>
</svg>